<svg width="256" height="256" viewBox="0 0 256 256" fill="none" xmlns="http://www.w3.org/2000/svg">
    <path
        d="M186.793 18C169.654 18 153.166 24.4 140.366 35.8983C139.551 36.6407 138.758 37.3983 137.985 38.1709C132.727 43.4297 123.206 43.4771 117.951 38.2153C117.164 37.4273 116.356 36.6549 115.525 35.8983C102.725 24.2915 86.2373 18 69.0983 18C31.0237 18 0 49.0237 0 87.2068C0 112.915 8.02712 133.308 26.7932 155.22C54.0203 187.003 123.119 235.6 126.047 237.661C126.698 238.095 127.349 238.312 128 238.312C128.651 238.312 129.41 238.095 129.953 237.661C132.881 235.6 201.871 187.003 229.207 155.22C247.973 133.308 256 112.915 256 87.2068C256 49.0237 224.976 18 186.793 18ZM218 147.5C196.59 172.462 151.755 211.799 133.609 226.227C130.288 228.868 125.722 228.848 122.452 226.143C104.897 211.615 62.8825 172.43 41.5 147.5C23.9271 126.998 14 111.18 14 87.2068C14 52.8204 34.8203 28 69.0983 28C84.5017 28 99.4712 30.6915 110.969 41.1051C116.719 46.3119 121.492 52.6034 124.963 59.5458C126.156 61.9322 129.953 61.9322 131.146 59.5458C134.617 52.6034 139.281 46.4203 145.139 41.1051C156.637 30.6915 171.39 28 186.793 28C221.071 28 242 52.8204 242 87.2068C241.892 111.18 235.573 126.998 218 147.5Z"
        fill="#DC143C" />
</svg>